<svg width="12" height="12" viewBox="0 0 12 12" fill="none" xmlns="http://www.w3.org/2000/svg">
<path d="M5 3H7C7 2.73478 6.89464 2.48043 6.70711 2.29289C6.51957 2.10536 6.26522 2 6 2C5.73478 2 5.48043 2.10536 5.29289 2.29289C5.10536 2.48043 5 2.73478 5 3ZM4 3C4 2.46957 4.21071 1.96086 4.58579 1.58579C4.96086 1.21071 5.46957 1 6 1C6.53043 1 7.03914 1.21071 7.41421 1.58579C7.78929 1.96086 8 2.46957 8 3H10.5C10.6326 3 10.7598 3.05268 10.8536 3.14645C10.9473 3.24021 11 3.36739 11 3.5C11 3.63261 10.9473 3.75979 10.8536 3.85355C10.7598 3.94732 10.6326 4 10.5 4H10.059L9.616 9.17C9.57341 9.66923 9.34499 10.1343 8.97593 10.4732C8.60686 10.8121 8.12405 11.0001 7.623 11H4.377C3.87595 11.0001 3.39314 10.8121 3.02407 10.4732C2.65501 10.1343 2.42659 9.66923 2.384 9.17L1.941 4H1.5C1.36739 4 1.24021 3.94732 1.14645 3.85355C1.05268 3.75979 1 3.63261 1 3.5C1 3.36739 1.05268 3.24021 1.14645 3.14645C1.24021 3.05268 1.36739 3 1.5 3H4ZM7.5 6C7.5 5.86739 7.44732 5.74021 7.35355 5.64645C7.25979 5.55268 7.13261 5.5 7 5.5C6.86739 5.5 6.74021 5.55268 6.64645 5.64645C6.55268 5.74021 6.5 5.86739 6.5 6V8C6.5 8.13261 6.55268 8.25979 6.64645 8.35355C6.74021 8.44732 6.86739 8.5 7 8.5C7.13261 8.5 7.25979 8.44732 7.35355 8.35355C7.44732 8.25979 7.5 8.13261 7.5 8V6ZM5 5.5C5.13261 5.5 5.25979 5.55268 5.35355 5.64645C5.44732 5.74021 5.5 5.86739 5.5 6V8C5.5 8.13261 5.44732 8.25979 5.35355 8.35355C5.25979 8.44732 5.13261 8.5 5 8.5C4.86739 8.5 4.74021 8.44732 4.64645 8.35355C4.55268 8.25979 4.5 8.13261 4.5 8V6C4.5 5.86739 4.55268 5.74021 4.64645 5.64645C4.74021 5.55268 4.86739 5.5 5 5.5ZM3.38 9.085C3.4013 9.3347 3.51558 9.5673 3.70022 9.73676C3.88486 9.90621 4.12639 10.0002 4.377 10H7.623C7.87344 9.9999 8.11472 9.90584 8.29915 9.73642C8.48357 9.56699 8.59771 9.33453 8.619 9.085L9.055 4H2.945L3.38 9.085Z" fill="black"/>
</svg>
