<svg width="18" height="18" viewBox="0 0 18 18" fill="none" xmlns="http://www.w3.org/2000/svg">
<path d="M12.2477 4.671C11.682 3.34675 10.6765 2.25843 9.40101 1.59004C8.12553 0.921656 6.65839 0.714201 5.2476 1.00275C3.83682 1.2913 2.56895 2.05816 1.65834 3.17367C0.747729 4.28918 0.250248 5.68492 0.25 7.12491V12.2812C0.25 12.5712 0.365234 12.8494 0.570352 13.0546C0.77547 13.2597 1.05367 13.3749 1.34375 13.3749H5.77109C6.25882 14.4887 7.06026 15.4364 8.07758 16.1023C9.09491 16.7682 10.2841 17.1236 11.5 17.1249H16.6562C16.9463 17.1249 17.2245 17.0097 17.4296 16.8046C17.6348 16.5994 17.75 16.3212 17.75 16.0312V10.8749C17.7497 9.34699 17.1897 7.8721 16.1759 6.729C15.1621 5.5859 13.7646 4.85378 12.2477 4.671ZM1.5 7.12491C1.5 6.136 1.79324 5.1693 2.34265 4.34706C2.89206 3.52481 3.67295 2.88395 4.58658 2.50551C5.50021 2.12707 6.50555 2.02806 7.47545 2.22098C8.44536 2.41391 9.33627 2.89011 10.0355 3.58937C10.7348 4.28864 11.211 5.17955 11.4039 6.14946C11.5969 7.11936 11.4978 8.12469 11.1194 9.03833C10.741 9.95196 10.1001 10.7328 9.27785 11.2823C8.4556 11.8317 7.48891 12.1249 6.5 12.1249H1.5V7.12491ZM16.5 15.8749H11.5C10.6159 15.8739 9.74775 15.639 8.98375 15.194C8.21976 14.749 7.5871 14.1098 7.15 13.3413C8.00603 13.2525 8.83445 12.9877 9.58328 12.5635C10.3321 12.1393 10.9852 11.5649 11.5015 10.8763C12.0178 10.1878 12.3862 9.39995 12.5836 8.56226C12.7809 7.72457 12.803 6.85513 12.6484 6.0085C13.7447 6.26723 14.7216 6.88856 15.4206 7.77181C16.1197 8.65506 16.5 9.74849 16.5 10.8749V15.8749Z" fill="#1C1C1C"/>
</svg>
