<svg width="12" height="12" viewBox="0 0 12 12" fill="none" xmlns="http://www.w3.org/2000/svg">
<path d="M2 11H10" stroke="black" stroke-width="0.75" stroke-linecap="round"/>
<path d="M6.94405 1.83146L7.3148 1.46071C7.92905 0.84643 8.925 0.84643 9.5393 1.46071C10.1536 2.07499 10.1536 3.07094 9.5393 3.68522L9.16855 4.05597M6.94405 1.83146C6.94405 1.83146 6.99035 2.61931 7.68555 3.31447C8.3807 4.00963 9.16855 4.05597 9.16855 4.05597M6.94405 1.83146L3.53553 5.23995C3.30467 5.4708 3.18923 5.58625 3.08996 5.71355C2.97286 5.86365 2.87246 6.0261 2.79054 6.198C2.7211 6.3437 2.66947 6.4986 2.56623 6.80835L2.12873 8.12085M9.16855 4.05597L5.76005 7.46445C5.5292 7.69535 5.41375 7.81075 5.28645 7.91005C5.13635 8.02715 4.97388 8.12755 4.80199 8.20945C4.65628 8.2789 4.50141 8.33055 4.19167 8.43375L2.87917 8.8713M2.12873 8.12085L2.02178 8.44165C1.97097 8.5941 2.01064 8.76215 2.12425 8.87575C2.23787 8.98935 2.40591 9.02905 2.55834 8.9782L2.87917 8.8713M2.12873 8.12085L2.87917 8.8713" stroke="black" stroke-width="0.75"/>
</svg>
